# xmcd
# 
# Track frame offsets:
#     150
#     22306
#     47981
#     82007
#     89965
#     110866
#     112024
#     137097
#     139391
#     159875
#     182841
#     207135
#     211637
#     229290
#     254086
#     274355
#     305959
# 
# Disc length: 4129
# 
# Revision: 4
# Processed by: cddbd v1.5.2PL0 Copyright (c) Steve Scherf et al.
# Submitted via: fre:ac v1.0.27
# 
DISCID=17101f11
DTITLE=John and the Sisters - John And The Sisters
DYEAR=2004
DGENRE=Blues
TTITLE0=Too Damn Big
TTITLE1=Only One
TTITLE2=Big Bomb
TTITLE3=Treat Her Right
TTITLE4=Gun
TTITLE5=Bad Machine
TTITLE6=L,A
TTITLE7=And We Touched
TTITLE8=Pralene
TTITLE9=Faithful
TTITLE10=A Better Way
TTITLE11=Son Of A Gun
TTITLE12=Money Changes Everything
TTITLE13=Good Day
TTITLE14=Penguin Walk
TTITLE15=Love To Stay, Gotta Go
TTITLE16=Hocktaves
EXTD=Bluesfestradio.com YEAR: 2004
EXTT0=
EXTT1=
EXTT2=
EXTT3=
EXTT4=
EXTT5=
EXTT6=
EXTT7=
EXTT8=
EXTT9=
EXTT10=
EXTT11=
EXTT12=
EXTT13=
EXTT14=
EXTT15=
EXTT16=
PLAYORDER=
